<?xml version="1.0" encoding="utf-8"?>
<!-- Generator: Adobe Illustrator 16.0.0, SVG Export Plug-In . SVG Version: 6.00 Build 0)  -->
<!DOCTYPE svg PUBLIC "-//W3C//DTD SVG 1.1//EN" "http://www.w3.org/Graphics/SVG/1.1/DTD/svg11.dtd">
<svg version="1.1" id="Layer_1" xmlns="http://www.w3.org/2000/svg" xmlns:xlink="http://www.w3.org/1999/xlink" x="0px" y="0px"
	 width="200px" height="200px" viewBox="200 0 350 350" enable-background="new 0 0 1400 1400" xml:space="preserve">
<g>
	<defs>
		<rect id="SVGID_1_" width="1400" height="1400"/>
	</defs>
	<clipPath id="SVGID_2_">
		<use xlink:href="#SVGID_1_"  overflow="visible"/>
	</clipPath>
	<g opacity="0.28" clip-path="url(#SVGID_2_)">
		<g>
			<defs>
				<rect id="SVGID_3_" x="129.71" y="53.77" width="884.1" height="884.101"/>
			</defs>
			<clipPath id="SVGID_4_">
				<use xlink:href="#SVGID_3_"  overflow="visible"/>
			</clipPath>
		</g>
	</g>
</g>
<g>
	<defs>
		<rect id="SVGID_5_" width="1400" height="1400"/>
	</defs>
	<clipPath id="SVGID_6_">
		<use xlink:href="#SVGID_5_"  overflow="visible"/>
	</clipPath>
	<path clip-path="url(#SVGID_6_)" fill="none" stroke="#000000" stroke-miterlimit="10" d="M189.55,190.53
		c-25.555-26.94-23.63-61.271-23.553-62.496c0.002-0.023,0.003-0.046,0.003-0.068c-0.003-24.464-3.007-22.972-18-36.966
		c-0.419-0.39-0.985-0.58-1.473-0.875C110.696,68.543,90.125,33.84,86.194,26.779c-0.352-0.633-1.228-0.708-1.679-0.142
		C81.531,30.394,73.557,43.053,86.5,58.5c0,0,19.778,26.532,41.329,43.584c0.389,0.309,0.78,0.614,1.171,0.916c22,17,18,22,20,30.5
		c0,0,4.904,39.723,39.319,58.621c0.535,0.293,1.214,0.047,1.44-0.521C189.906,191.235,189.821,190.816,189.55,190.53z"/>
	<path clip-path="url(#SVGID_6_)" fill="none" stroke="#000000" stroke-miterlimit="10" d="M123.603,103.175
		c4.121,2.646,18.475,13.006,20.254,29.94c0.086,0.823-0.794,1.403-1.516,0.999c-5.825-3.258-24.753-15.183-20.266-30.353
		C122.269,103.107,123.027,102.807,123.603,103.175z"/>
	<path clip-path="url(#SVGID_6_)" fill="none" stroke="#000000" stroke-miterlimit="10" d="M116.85,103.384l0.579-5.02
		c0.043-0.375-0.119-0.74-0.431-0.953c-3.749-2.56-27.595-19.413-40.372-42.32c-0.443-0.793-1.623-0.636-1.863,0.24
		C73.378,60.375,71.149,72.634,78.5,82.5c0,0,12.458,22.718,37.375,21.792C116.376,104.273,116.792,103.882,116.85,103.384z"/>
	<path clip-path="url(#SVGID_6_)" fill="none" stroke="#000000" stroke-miterlimit="10" d="M68.25,77.75c0,0,0.12,0.241,0.37,0.682
		c2.279,4.033,15.339,24.824,46.012,32.172c0.373,0.09,0.666,0.374,0.753,0.747c0.414,1.774,1.753,7.047,3.663,9.977
		c0.428,0.656-0.019,1.525-0.801,1.56C108.722,123.32,68.47,122.494,68.25,77.75z"/>
	<path clip-path="url(#SVGID_6_)" fill="none" stroke="#000000" stroke-miterlimit="10" d="M118.561,128.725
		c0.522,0.017,0.954,0.418,0.988,0.939c0.138,2.092,0.629,7.229,2.201,9.586c1.931,2.896-55.54,2.065-57.283-35.098
		c-0.05-1.05,1.344-1.465,1.89-0.566C70.894,111.052,84.744,127.668,118.561,128.725z"/>
	<path clip-path="url(#SVGID_6_)" fill="none" stroke="#000000" stroke-miterlimit="10" d="M126.766,129.855
		c3.577,3.612,11.84,11.222,17.792,11.001c0.531-0.02,0.981,0.37,1.039,0.898c0.157,1.431,0.516,4.08,1.171,5.861
		c0.251,0.684-0.254,1.406-0.983,1.375c-5.095-0.214-19.843-2.229-20.758-18.346C124.974,129.706,126.105,129.188,126.766,129.855z"
		/>
	<path clip-path="url(#SVGID_6_)" fill="none" stroke="#000000" stroke-miterlimit="10" d="M150.556,155.14l1.927,5.606
		c0.247,0.718-0.347,1.44-1.1,1.339c-3.566-0.479-12.1-2.287-16.032-8.817c-0.527-0.876,0.433-1.908,1.339-1.435
		c3.031,1.583,8.133,3.646,12.718,2.64C149.9,154.365,150.392,154.663,150.556,155.14z"/>
	<path clip-path="url(#SVGID_6_)" fill="none" stroke="#000000" stroke-miterlimit="10" d="M147.125,166.433
		c1.726,0.667,4.16,1.224,6.498,0.432c0.501-0.169,1.045,0.06,1.259,0.543c0.53,1.192,1.595,3.392,3.118,5.592
		c1.972,2.85-8.356,0.702-12.11-5.095C145.364,167.093,146.224,166.084,147.125,166.433z"/>
	<path clip-path="url(#SVGID_6_)" fill="none" stroke="#000000" stroke-miterlimit="10" d="M162.442,178.522l3.559,4.206
		c0.582,0.688,0.047,1.744-0.852,1.671c-3.531-0.284-10.214-1.363-14.188-5.419c-0.75-0.766,0.105-2.026,1.106-1.64
		c2.492,0.96,6.023,1.831,9.283,0.876C161.747,178.101,162.175,178.207,162.442,178.522z"/>
	<path clip-path="url(#SVGID_6_)" fill="none" stroke="#000000" stroke-miterlimit="10" d="M76.25,135.75
		c0,0,0.156,0.117,0.499,0.325c2.395,1.453,13.896,7.341,44.828,8.668c0.116,0.005,0.229,0.028,0.337,0.072
		c1.23,0.499,8.919,3.788,6.788,7.153c-0.12,0.19-0.316,0.32-0.532,0.388C124.126,153.628,84.082,165.414,76.25,135.75z"/>
	<path clip-path="url(#SVGID_6_)" fill="none" stroke="#000000" stroke-miterlimit="10" d="M132.075,156.565
		c1.637,0.946,6.271,3.968,7.263,8.381c0.128,0.569-0.244,1.132-0.819,1.233c-5.188,0.906-29.449,4.615-36.011-3.941
		c-0.518-0.676,0.034-1.655,0.885-1.606c5.366,0.31,20.731,0.732,27.592-4.005C131.313,156.401,131.729,156.366,132.075,156.565z"/>
	<path clip-path="url(#SVGID_6_)" fill="none" stroke="#000000" stroke-miterlimit="10" d="M123.74,172.763l18.537-1.963
		c0.307-0.032,0.609,0.076,0.827,0.293c1.246,1.24,5.249,5.547,3.335,7.946c-0.119,0.15-0.293,0.249-0.476,0.308
		c-1.9,0.606-12.894,3.592-22.785-4.799C122.501,173.973,122.856,172.857,123.74,172.763z"/>
</g>
<g>
	<defs>
		<path id="SVGID_7_" d="M268.372,88.173c0,0,43.854,58.829,91.641,96.641c0.864,0.684,1.729,1.361,2.596,2.03
			c48.782,37.696,39.912,48.782,44.347,67.63c0,0,11.087,89.803,89.433,131.193l1.478-3.696
			c-58.76-60.976-53.216-139.692-53.216-139.692c0-54.326-6.652-51-39.912-82.042c-0.928-0.866-2.184-1.288-3.267-1.941
			C312.685,104.816,266.154,15,266.154,15S234.003,47.151,268.372,88.173"/>
	</defs>
	<clipPath id="SVGID_8_">
		<use xlink:href="#SVGID_7_"  overflow="visible"/>
	</clipPath>
	
		<linearGradient id="SVGID_9_" gradientUnits="userSpaceOnUse" x1="0" y1="1400.0244" x2="1" y2="1400.0244" gradientTransform="matrix(-246 -217 -217 246 304322.25 -344072.375)">
		<stop  offset="0" style="stop-color:#C1272D"/>
		<stop  offset="1" style="stop-color:#F15A24"/>
	</linearGradient>
	<polygon clip-path="url(#SVGID_8_)" fill="url(#SVGID_9_)" points="382.397,516.568 50.118,223.459 349.473,-115.901 
		681.752,177.208 	"/>
</g>
<g>
	<defs>
		<path id="SVGID_10_" d="M395.87,257.8c-2.218-46.565-47.673-72.064-47.673-72.064C332.675,226.757,395.87,257.8,395.87,257.8"/>
	</defs>
	<clipPath id="SVGID_11_">
		<use xlink:href="#SVGID_10_"  overflow="visible"/>
	</clipPath>
	
		<linearGradient id="SVGID_12_" gradientUnits="userSpaceOnUse" x1="0" y1="1400.0117" x2="1" y2="1400.0117" gradientTransform="matrix(-246 -217 -217 246 304308.25 -344056.4375)">
		<stop  offset="0" style="stop-color:#C1272D"/>
		<stop  offset="1" style="stop-color:#F15A24"/>
	</linearGradient>
	<polygon clip-path="url(#SVGID_11_)" fill="url(#SVGID_12_)" points="368.215,289.15 296.924,226.264 360.33,154.386 
		431.621,217.272 	"/>
</g>
<g>
	<defs>
		<path id="SVGID_13_" d="M250.633,141.389c0,0,28.272,51.554,84.813,48.227l1.663-14.413c0,0-63.194-41.575-93.128-99.226
			C243.981,75.977,229.568,113.118,250.633,141.389"/>
	</defs>
	<clipPath id="SVGID_14_">
		<use xlink:href="#SVGID_13_"  overflow="visible"/>
	</clipPath>
	
		<linearGradient id="SVGID_15_" gradientUnits="userSpaceOnUse" x1="0" y1="1399.9785" x2="1" y2="1399.9785" gradientTransform="matrix(-246 -217 -217 246 304309 -344057.25)">
		<stop  offset="0" style="stop-color:#C1272D"/>
		<stop  offset="1" style="stop-color:#F15A24"/>
	</linearGradient>
	<polygon clip-path="url(#SVGID_14_)" fill="url(#SVGID_15_)" points="290.048,246.293 171.542,141.758 276.629,22.627 
		395.135,127.163 	"/>
</g>
<g>
	<defs>
		<path id="SVGID_16_" d="M343.207,230.637c-6.652-5.543-11.086-26.607-11.086-26.607c-68.994-15.999-98.308-62.658-103.396-71.66
			c-0.553-0.978-0.82-1.512-0.82-1.512C228.46,243.387,343.207,230.637,343.207,230.637"/>
	</defs>
	<clipPath id="SVGID_17_">
		<use xlink:href="#SVGID_16_"  overflow="visible"/>
	</clipPath>
	
		<linearGradient id="SVGID_18_" gradientUnits="userSpaceOnUse" x1="0" y1="1399.9775" x2="1" y2="1399.9775" gradientTransform="matrix(-246 -217 -217 246 304283.5 -344028.4375)">
		<stop  offset="0" style="stop-color:#C1272D"/>
		<stop  offset="1" style="stop-color:#F15A24"/>
	</linearGradient>
	<polygon clip-path="url(#SVGID_17_)" fill="url(#SVGID_18_)" points="292.75,300.587 172.08,194.143 278.362,73.657 
		399.032,180.102 	"/>
</g>
<g>
	<defs>
		<path id="SVGID_19_" d="M346.533,267.223c-4.434-6.652-4.989-23.282-4.989-23.282c-98.672-2.218-121.954-63.749-121.954-63.749
			C214.046,271.658,350.968,273.876,346.533,267.223"/>
	</defs>
	<clipPath id="SVGID_20_">
		<use xlink:href="#SVGID_19_"  overflow="visible"/>
	</clipPath>
	
		<linearGradient id="SVGID_21_" gradientUnits="userSpaceOnUse" x1="0" y1="1399.9873" x2="1" y2="1399.9873" gradientTransform="matrix(-246 -217 -217 246 304264.5 -344006.875)">
		<stop  offset="0" style="stop-color:#C1272D"/>
		<stop  offset="1" style="stop-color:#F15A24"/>
	</linearGradient>
	<polygon clip-path="url(#SVGID_20_)" fill="url(#SVGID_21_)" points="291.05,341.802 167.57,232.879 273.964,112.266 
		397.444,221.189 	"/>
</g>
<g>
	<defs>
		<path id="SVGID_22_" d="M403.63,288.842c-3.326-3.88-4.435-18.292-4.435-18.292c-17.185,3.326-45.455-28.271-45.455-28.271
			C352.076,291.614,403.63,288.842,403.63,288.842"/>
	</defs>
	<clipPath id="SVGID_23_">
		<use xlink:href="#SVGID_22_"  overflow="visible"/>
	</clipPath>
	
		<linearGradient id="SVGID_24_" gradientUnits="userSpaceOnUse" x1="0" y1="1399.9941" x2="1" y2="1399.9941" gradientTransform="matrix(-246 -217 -217 246 304288 -344033.5625)">
		<stop  offset="0" style="stop-color:#C1272D"/>
		<stop  offset="1" style="stop-color:#F15A24"/>
	</linearGradient>
	<polygon clip-path="url(#SVGID_23_)" fill="url(#SVGID_24_)" points="381.069,317.189 327.601,270.024 374.637,216.704 
		428.104,263.869 	"/>
</g>
<g>
	<defs>
		<path id="SVGID_25_" d="M415.825,318.223l-6.097-17.739c-16.076,4.989-36.032-8.87-36.032-8.87
			C381.457,316.559,415.825,318.223,415.825,318.223"/>
	</defs>
	<clipPath id="SVGID_26_">
		<use xlink:href="#SVGID_25_"  overflow="visible"/>
	</clipPath>
	
		<linearGradient id="SVGID_27_" gradientUnits="userSpaceOnUse" x1="0" y1="1400.0078" x2="1" y2="1400.0078" gradientTransform="matrix(-246 -217 -217 246 304279.25 -344023.6875)">
		<stop  offset="0" style="stop-color:#C1272D"/>
		<stop  offset="1" style="stop-color:#F15A24"/>
	</linearGradient>
	<polygon clip-path="url(#SVGID_26_)" fill="url(#SVGID_27_)" points="397.389,339.123 360.496,306.579 392.132,270.714 
		429.025,303.258 	"/>
</g>
<g>
	<defs>
		<path id="SVGID_28_" d="M426.912,342.059c-4.989-7.206-7.76-14.413-7.76-14.413c-9.979,4.989-21.62-2.772-21.62-2.772
			C401.413,342.059,431.901,349.265,426.912,342.059"/>
	</defs>
	<clipPath id="SVGID_29_">
		<use xlink:href="#SVGID_28_"  overflow="visible"/>
	</clipPath>
	
		<linearGradient id="SVGID_30_" gradientUnits="userSpaceOnUse" x1="0" y1="1400.0059" x2="1" y2="1400.0059" gradientTransform="matrix(-246 -217 -217 246 304272 -344015.25)">
		<stop  offset="0" style="stop-color:#C1272D"/>
		<stop  offset="1" style="stop-color:#F15A24"/>
	</linearGradient>
	<polygon clip-path="url(#SVGID_29_)" fill="url(#SVGID_30_)" points="416.861,366.315 385.432,338.591 412.572,307.824 
		444.001,335.548 	"/>
</g>
<g>
	<defs>
		<path id="SVGID_31_" d="M447.977,367.558l-12.196-14.413c-13.304,4.99-29.38-4.989-29.38-4.989
			C415.271,368.113,447.977,367.558,447.977,367.558"/>
	</defs>
	<clipPath id="SVGID_32_">
		<use xlink:href="#SVGID_31_"  overflow="visible"/>
	</clipPath>
	
		<linearGradient id="SVGID_33_" gradientUnits="userSpaceOnUse" x1="0" y1="1400.002" x2="1" y2="1400.002" gradientTransform="matrix(-246 -217 -217 246 304265.75 -344008.4375)">
		<stop  offset="0" style="stop-color:#C1272D"/>
		<stop  offset="1" style="stop-color:#F15A24"/>
	</linearGradient>
	<polygon clip-path="url(#SVGID_32_)" fill="url(#SVGID_33_)" points="429.783,388.739 396.5,359.38 424.595,327.53 457.877,356.89 
			"/>
</g>
<g>
	<defs>
		<path id="SVGID_34_" d="M361.5,296.049c6.652-8.315-14.967-16.63-14.967-16.63c-68.877-2.911-94.462-16.007-99.783-19.236
			c-0.76-0.46-1.106-0.721-1.106-0.721C263.937,328.755,361.5,296.049,361.5,296.049"/>
	</defs>
	<clipPath id="SVGID_35_">
		<use xlink:href="#SVGID_34_"  overflow="visible"/>
	</clipPath>
	
		<linearGradient id="SVGID_36_" gradientUnits="userSpaceOnUse" x1="0" y1="1400.0234" x2="1" y2="1400.0234" gradientTransform="matrix(-246 -217 -217 246 304249.75 -343990.125)">
		<stop  offset="0" style="stop-color:#C1272D"/>
		<stop  offset="1" style="stop-color:#F15A24"/>
	</linearGradient>
	<polygon clip-path="url(#SVGID_35_)" fill="url(#SVGID_36_)" points="314.542,389.53 211.269,298.432 299.255,198.687 
		402.528,289.785 	"/>
</g>
<g>
	<defs>
		<path id="SVGID_37_" d="M301.631,314.342c11.088,26.608,84.26,12.196,84.26,12.196c-1.109-13.304-17.739-21.619-17.739-21.619
			C350.413,318.777,301.631,314.342,301.631,314.342"/>
	</defs>
	<clipPath id="SVGID_38_">
		<use xlink:href="#SVGID_37_"  overflow="visible"/>
	</clipPath>
	
		<linearGradient id="SVGID_39_" gradientUnits="userSpaceOnUse" x1="0" y1="1400.0117" x2="1" y2="1400.0117" gradientTransform="matrix(-246 -217 -217 246 304249 -343989.3125)">
		<stop  offset="0" style="stop-color:#C1272D"/>
		<stop  offset="1" style="stop-color:#F15A24"/>
	</linearGradient>
	<polygon clip-path="url(#SVGID_38_)" fill="url(#SVGID_39_)" points="349.018,382.75 283.756,325.183 338.504,263.118 
		403.766,320.687 	"/>
</g>
<g>
	<defs>
		<path id="SVGID_40_" d="M345.979,342.059c24.945,24.945,54.879,13.858,54.879,13.858c6.098-6.097-7.76-18.847-7.76-18.847
			L345.979,342.059z"/>
	</defs>
	<clipPath id="SVGID_41_">
		<use xlink:href="#SVGID_40_"  overflow="visible"/>
	</clipPath>
	
		<linearGradient id="SVGID_42_" gradientUnits="userSpaceOnUse" x1="0" y1="1400.0137" x2="1" y2="1400.0137" gradientTransform="matrix(-246 -217 -217 246 304249.5 -343989.875)">
		<stop  offset="0" style="stop-color:#C1272D"/>
		<stop  offset="1" style="stop-color:#F15A24"/>
	</linearGradient>
	<polygon clip-path="url(#SVGID_41_)" fill="url(#SVGID_42_)" points="380.272,397.254 331.129,353.904 372.663,306.82 
		421.806,350.169 	"/>
</g>
<g>
	<defs>
		<path id="SVGID_43_" d="M623.371,113.173c0,0,43.856,58.829,91.642,96.641c0.864,0.684,1.729,1.361,2.598,2.03
			c48.78,37.696,39.911,48.782,44.346,67.63c0,0,11.087,89.803,89.432,131.193l1.479-3.696
			c-58.759-60.977-53.217-139.693-53.217-139.693c0-54.325-6.651-50.998-39.911-82.041c-0.929-0.866-2.186-1.288-3.268-1.941
			C667.686,129.817,621.154,40,621.154,40S589.003,72.152,623.371,113.173"/>
	</defs>
	<clipPath id="SVGID_44_">
		<use xlink:href="#SVGID_43_"  overflow="visible"/>
	</clipPath>
	
		<linearGradient id="SVGID_45_" gradientUnits="userSpaceOnUse" x1="0" y1="1400.0234" x2="1" y2="1400.0234" gradientTransform="matrix(-246 -217 -217 246 304677.2188 -344047.3438)">
		<stop  offset="0" style="stop-color:#C1272D"/>
		<stop  offset="1" style="stop-color:#F15A24"/>
	</linearGradient>
	<polygon clip-path="url(#SVGID_44_)" fill="url(#SVGID_45_)" points="737.397,541.568 405.118,248.459 704.473,-90.901 
		1036.752,202.208 	"/>
</g>
<g>
	<defs>
		<path id="SVGID_46_" d="M750.869,282.799c-2.218-46.564-47.673-72.064-47.673-72.064
			C687.675,251.757,750.869,282.799,750.869,282.799"/>
	</defs>
	<clipPath id="SVGID_47_">
		<use xlink:href="#SVGID_46_"  overflow="visible"/>
	</clipPath>
	
		<linearGradient id="SVGID_48_" gradientUnits="userSpaceOnUse" x1="0" y1="1400.0117" x2="1" y2="1400.0117" gradientTransform="matrix(-246 -217 -217 246 304663.25 -344031.4375)">
		<stop  offset="0" style="stop-color:#C1272D"/>
		<stop  offset="1" style="stop-color:#F15A24"/>
	</linearGradient>
	<polygon clip-path="url(#SVGID_47_)" fill="url(#SVGID_48_)" points="723.215,314.149 651.925,251.263 715.329,179.385 
		786.619,242.271 	"/>
</g>
<g>
	<defs>
		<path id="SVGID_49_" d="M605.633,166.389c0,0,28.271,51.554,84.814,48.227l1.662-14.412c0,0-63.194-41.576-93.128-99.227
			C598.981,100.977,584.568,138.118,605.633,166.389"/>
	</defs>
	<clipPath id="SVGID_50_">
		<use xlink:href="#SVGID_49_"  overflow="visible"/>
	</clipPath>
	
		<linearGradient id="SVGID_51_" gradientUnits="userSpaceOnUse" x1="0" y1="1399.9795" x2="1" y2="1399.9795" gradientTransform="matrix(-246 -217 -217 246 304664 -344032.25)">
		<stop  offset="0" style="stop-color:#C1272D"/>
		<stop  offset="1" style="stop-color:#F15A24"/>
	</linearGradient>
	<polygon clip-path="url(#SVGID_50_)" fill="url(#SVGID_51_)" points="645.048,271.293 526.542,166.758 631.629,47.627 
		750.135,152.163 	"/>
</g>
<g>
	<defs>
		<path id="SVGID_52_" d="M698.207,255.637c-6.652-5.544-11.087-26.607-11.087-26.607c-68.993-15.998-98.307-62.658-103.395-71.66
			c-0.553-0.979-0.819-1.513-0.819-1.513C583.459,268.387,698.207,255.637,698.207,255.637"/>
	</defs>
	<clipPath id="SVGID_53_">
		<use xlink:href="#SVGID_52_"  overflow="visible"/>
	</clipPath>
	
		<linearGradient id="SVGID_54_" gradientUnits="userSpaceOnUse" x1="0" y1="1399.9785" x2="1" y2="1399.9785" gradientTransform="matrix(-246 -217 -217 246 304638.5 -344003.4375)">
		<stop  offset="0" style="stop-color:#C1272D"/>
		<stop  offset="1" style="stop-color:#F15A24"/>
	</linearGradient>
	<polygon clip-path="url(#SVGID_53_)" fill="url(#SVGID_54_)" points="647.75,325.587 527.08,219.143 633.363,98.656 
		754.032,205.101 	"/>
</g>
<g>
	<defs>
		<path id="SVGID_55_" d="M701.533,292.223c-4.434-6.652-4.989-23.282-4.989-23.282c-98.672-2.217-121.954-63.749-121.954-63.749
			C569.047,296.659,705.968,298.875,701.533,292.223"/>
	</defs>
	<clipPath id="SVGID_56_">
		<use xlink:href="#SVGID_55_"  overflow="visible"/>
	</clipPath>
	
		<linearGradient id="SVGID_57_" gradientUnits="userSpaceOnUse" x1="0" y1="1399.9873" x2="1" y2="1399.9873" gradientTransform="matrix(-246 -217 -217 246 304619.5 -343981.875)">
		<stop  offset="0" style="stop-color:#C1272D"/>
		<stop  offset="1" style="stop-color:#F15A24"/>
	</linearGradient>
	<polygon clip-path="url(#SVGID_56_)" fill="url(#SVGID_57_)" points="646.05,366.801 522.571,257.878 628.965,137.267 
		752.443,246.188 	"/>
</g>
<g>
	<defs>
		<path id="SVGID_58_" d="M758.63,313.842c-3.327-3.88-4.435-18.292-4.435-18.292c-17.185,3.325-45.456-28.272-45.456-28.272
			C707.076,316.614,758.63,313.842,758.63,313.842"/>
	</defs>
	<clipPath id="SVGID_59_">
		<use xlink:href="#SVGID_58_"  overflow="visible"/>
	</clipPath>
	
		<linearGradient id="SVGID_60_" gradientUnits="userSpaceOnUse" x1="0" y1="1399.9951" x2="1" y2="1399.9951" gradientTransform="matrix(-246 -217 -217 246 304643 -344008.5625)">
		<stop  offset="0" style="stop-color:#C1272D"/>
		<stop  offset="1" style="stop-color:#F15A24"/>
	</linearGradient>
	<polygon clip-path="url(#SVGID_59_)" fill="url(#SVGID_60_)" points="736.069,342.189 682.601,295.024 729.637,241.703 
		783.105,288.868 	"/>
</g>
<g>
	<defs>
		<path id="SVGID_61_" d="M770.825,343.222l-6.099-17.738c-16.075,4.988-36.031-8.87-36.031-8.87
			C736.456,341.56,770.825,343.222,770.825,343.222"/>
	</defs>
	<clipPath id="SVGID_62_">
		<use xlink:href="#SVGID_61_"  overflow="visible"/>
	</clipPath>
	
		<linearGradient id="SVGID_63_" gradientUnits="userSpaceOnUse" x1="0" y1="1400.0078" x2="1" y2="1400.0078" gradientTransform="matrix(-246 -217 -217 246 304634.25 -343998.6875)">
		<stop  offset="0" style="stop-color:#C1272D"/>
		<stop  offset="1" style="stop-color:#F15A24"/>
	</linearGradient>
	<polygon clip-path="url(#SVGID_62_)" fill="url(#SVGID_63_)" points="752.389,364.123 715.495,331.578 747.132,295.714 
		784.025,328.258 	"/>
</g>
<g>
	<defs>
		<path id="SVGID_64_" d="M781.912,367.058c-4.989-7.205-7.761-14.412-7.761-14.412c-9.979,4.989-21.619-2.771-21.619-2.771
			C756.412,367.058,786.901,374.266,781.912,367.058"/>
	</defs>
	<clipPath id="SVGID_65_">
		<use xlink:href="#SVGID_64_"  overflow="visible"/>
	</clipPath>
	
		<linearGradient id="SVGID_66_" gradientUnits="userSpaceOnUse" x1="0" y1="1400.0068" x2="1" y2="1400.0068" gradientTransform="matrix(-246 -217 -217 246 304627 -343990.25)">
		<stop  offset="0" style="stop-color:#C1272D"/>
		<stop  offset="1" style="stop-color:#F15A24"/>
	</linearGradient>
	<polygon clip-path="url(#SVGID_65_)" fill="url(#SVGID_66_)" points="771.86,391.316 740.432,363.592 767.572,332.825 
		799.001,360.549 	"/>
</g>
<g>
	<defs>
		<path id="SVGID_67_" d="M802.976,392.558l-12.194-14.413c-13.303,4.99-29.38-4.988-29.38-4.988
			C770.27,393.112,802.976,392.558,802.976,392.558"/>
	</defs>
	<clipPath id="SVGID_68_">
		<use xlink:href="#SVGID_67_"  overflow="visible"/>
	</clipPath>
	
		<linearGradient id="SVGID_69_" gradientUnits="userSpaceOnUse" x1="0" y1="1400.002" x2="1" y2="1400.002" gradientTransform="matrix(-246 -217 -217 246 304620.75 -343983.4375)">
		<stop  offset="0" style="stop-color:#C1272D"/>
		<stop  offset="1" style="stop-color:#F15A24"/>
	</linearGradient>
	<polygon clip-path="url(#SVGID_68_)" fill="url(#SVGID_69_)" points="784.782,413.737 751.502,384.379 779.595,352.532 
		812.876,381.89 	"/>
</g>
<g>
	<defs>
		<path id="SVGID_70_" d="M716.5,321.049c6.653-8.315-14.967-16.63-14.967-16.63c-68.876-2.91-94.462-16.007-99.782-19.235
			c-0.761-0.461-1.107-0.721-1.107-0.721C618.937,353.755,716.5,321.049,716.5,321.049"/>
	</defs>
	<clipPath id="SVGID_71_">
		<use xlink:href="#SVGID_70_"  overflow="visible"/>
	</clipPath>
	
		<linearGradient id="SVGID_72_" gradientUnits="userSpaceOnUse" x1="0" y1="1400.0234" x2="1" y2="1400.0234" gradientTransform="matrix(-246 -217 -217 246 304604.75 -343965.125)">
		<stop  offset="0" style="stop-color:#C1272D"/>
		<stop  offset="1" style="stop-color:#F15A24"/>
	</linearGradient>
	<polygon clip-path="url(#SVGID_71_)" fill="url(#SVGID_72_)" points="669.542,414.531 566.269,323.432 654.255,223.688 
		757.528,314.786 	"/>
</g>
<g>
	<defs>
		<path id="SVGID_73_" d="M656.632,339.342c11.087,26.608,84.259,12.196,84.259,12.196c-1.108-13.305-17.737-21.619-17.737-21.619
			C705.413,343.777,656.632,339.342,656.632,339.342"/>
	</defs>
	<clipPath id="SVGID_74_">
		<use xlink:href="#SVGID_73_"  overflow="visible"/>
	</clipPath>
	
		<linearGradient id="SVGID_75_" gradientUnits="userSpaceOnUse" x1="0" y1="1400.0117" x2="1" y2="1400.0117" gradientTransform="matrix(-246 -217 -217 246 304604 -343964.3125)">
		<stop  offset="0" style="stop-color:#C1272D"/>
		<stop  offset="1" style="stop-color:#F15A24"/>
	</linearGradient>
	<polygon clip-path="url(#SVGID_74_)" fill="url(#SVGID_75_)" points="704.019,407.75 638.757,350.183 693.504,288.119 
		758.766,345.687 	"/>
</g>
<g>
	<defs>
		<path id="SVGID_76_" d="M700.979,367.058c24.945,24.946,54.881,13.859,54.881,13.859c6.097-6.098-7.762-18.847-7.762-18.847
			L700.979,367.058z"/>
	</defs>
	<clipPath id="SVGID_77_">
		<use xlink:href="#SVGID_76_"  overflow="visible"/>
	</clipPath>
	
		<linearGradient id="SVGID_78_" gradientUnits="userSpaceOnUse" x1="0" y1="1400.0146" x2="1" y2="1400.0146" gradientTransform="matrix(-246 -217 -217 246 304604.5313 -343964.9063)">
		<stop  offset="0" style="stop-color:#C1272D"/>
		<stop  offset="1" style="stop-color:#F15A24"/>
	</linearGradient>
	<polygon clip-path="url(#SVGID_77_)" fill="url(#SVGID_78_)" points="735.271,422.254 686.129,378.904 727.663,331.82 
		776.806,375.169 	"/>
</g>
<g>
	<defs>
		<path id="SVGID_79_" d="M826.13,277.023c-4.787,0.601-9.472,1.477-14.063,2.563c1.905,1.167,3.788,2.36,5.64,3.588
			c60.595-5.802,115.202,37.619,122.831,98.42c7.769,61.923-36.132,118.419-98.054,126.188
			c-61.925,7.769-118.42-36.132-126.188-98.054c-0.908-7.24-1.102-14.403-0.651-21.426c-0.924-0.942-1.862-1.872-2.819-2.789
			c-2.093,12.377-2.445,25.261-0.804,38.357c9.043,72.06,74.788,123.148,146.849,114.107c72.06-9.04,123.147-74.786,114.106-146.846
			c-8.343-66.502-64.985-115.142-130.311-115.145C837.205,275.986,831.689,276.326,826.13,277.023"/>
	</defs>
	<clipPath id="SVGID_80_">
		<use xlink:href="#SVGID_79_"  overflow="visible"/>
	</clipPath>
	
		<linearGradient id="SVGID_81_" gradientUnits="userSpaceOnUse" x1="0" y1="1400.002" x2="1" y2="1400.002" gradientTransform="matrix(-182.4519 -160.9433 -160.9433 182.4519 226261.6563 -254938.1406)">
		<stop  offset="0" style="stop-color:#C1272D"/>
		<stop  offset="1" style="stop-color:#F15A24"/>
	</linearGradient>
	<polygon clip-path="url(#SVGID_80_)" fill="url(#SVGID_81_)" points="863.146,681.775 575.923,428.412 829.251,141.229 
		1116.475,394.592 	"/>
</g>
<g>
	<defs>
		<path id="SVGID_82_" d="M828.297,361.221c-1.385,0.174-2.74,0.428-4.068,0.742c0.551,0.337,1.096,0.683,1.633,1.038
			c17.53-1.678,33.329,10.884,35.535,28.474c2.247,17.916-10.452,34.261-28.368,36.509c-17.915,2.247-34.26-10.455-36.507-28.369
			c-0.264-2.095-0.319-4.167-0.189-6.199c-0.267-0.272-0.539-0.541-0.816-0.807c-0.604,3.581-0.707,7.308-0.231,11.097
			c2.616,20.848,21.637,35.629,42.484,33.013c20.849-2.615,35.63-21.637,33.014-42.484c-2.414-19.24-18.804-33.312-37.703-33.314
			C831.499,360.921,829.905,361.019,828.297,361.221"/>
	</defs>
	<clipPath id="SVGID_83_">
		<use xlink:href="#SVGID_82_"  overflow="visible"/>
	</clipPath>
	
		<linearGradient id="SVGID_84_" gradientUnits="userSpaceOnUse" x1="0" y1="1400.0029" x2="1" y2="1400.0029" gradientTransform="matrix(-52.7858 -46.5631 -46.5631 52.7858 66049.9063 -73476.0078)">
		<stop  offset="0" style="stop-color:#C1272D"/>
		<stop  offset="1" style="stop-color:#F15A24"/>
	</linearGradient>
	<polygon clip-path="url(#SVGID_83_)" fill="url(#SVGID_84_)" points="839.007,478.322 755.908,405.021 829.2,321.934 
		912.299,395.236 	"/>
</g>
</svg>
