<?xml version="1.0" encoding="iso-8859-1"?>
<!-- Generator: Adobe Illustrator 16.0.0, SVG Export Plug-In . SVG Version: 6.00 Build 0)  -->
<!DOCTYPE svg PUBLIC "-//W3C//DTD SVG 1.1//EN" "http://www.w3.org/Graphics/SVG/1.1/DTD/svg11.dtd">
<svg version="1.1" id="Capa_1" xmlns="http://www.w3.org/2000/svg" xmlns:xlink="http://www.w3.org/1999/xlink" x="0px" y="0px"
	 width="533.333px" height="533.333px" viewBox="0 0 533.333 533.333" style="enable-background:new 0 0 533.333 533.333;"
	 xml:space="preserve">
<g>
	<path d="M227.607,426.126c0,39.099-24.161,69.996-92.582,72.487c-40.096-22.805-73.693-55.703-97.348-95.242
		c12.339-30.467,50.881-53.67,94.957-53.184c12.511,0.13,24.172,2.142,34.763,5.572c29.118,20.242,52.604,32.892,58.501,55.962
		C226.999,416.391,227.607,421.205,227.607,426.126z M266.667,0C189.614,0,120.21,32.692,71.528,84.947
		c19.236-10.652,41.947-16.999,66.095-16.999c34.931,0,133.561,0,133.561,0l-29.846,31.323h-35.058
		c24.738,14.173,37.892,43.358,37.892,75.527c0,29.527-16.362,53.323-39.469,71.384c-22.542,17.605-26.819,24.983-26.819,39.966
		c0,12.781,26.938,31.821,39.323,41.112c43.135,32.351,51.863,52.699,51.863,93.163c0,41.001-35.903,81.824-96.804,95.696
		c29.348,11.114,61.159,17.213,94.4,17.213c147.275,0,266.667-119.391,266.667-266.666C533.333,119.391,413.942,0,266.667,0z
		 M400,200v66.667h-33.333V200H300v-33.333h66.667V100H400v66.667h66.667V200H400z M190.504,176.808
		c6.209,47.279-14.503,77.704-50.486,76.632c-36.003-1.084-70.211-34.11-76.427-81.375c-6.212-47.286,17.926-83.466,53.922-82.394
		C153.497,90.751,184.293,129.537,190.504,176.808z M115.044,334.41c-38.896,0-71.941,13.421-95.23,33.263
		C7.053,336.518,0,302.417,0,266.667c0-29.566,4.821-58.004,13.704-84.582c3.841,51.793,40.288,91.768,100.506,91.768
		c4.434,0,8.731-0.23,12.955-0.533c-4.141,7.933-7.095,16.767-7.095,26.032c0,15.61,8.587,24.517,19.202,34.842
		C131.25,334.193,123.506,334.41,115.044,334.41z"/>
</g>
<g>
</g>
<g>
</g>
<g>
</g>
<g>
</g>
<g>
</g>
<g>
</g>
<g>
</g>
<g>
</g>
<g>
</g>
<g>
</g>
<g>
</g>
<g>
</g>
<g>
</g>
<g>
</g>
<g>
</g>
</svg>
