<?xml version="1.0" encoding="utf-8"?>
<!-- Generator: Adobe Illustrator 16.0.0, SVG Export Plug-In . SVG Version: 6.00 Build 0)  -->
<!DOCTYPE svg PUBLIC "-//W3C//DTD SVG 1.1//EN" "http://www.w3.org/Graphics/SVG/1.1/DTD/svg11.dtd">
<svg version="1.1" id="Capa_1" xmlns="http://www.w3.org/2000/svg" xmlns:xlink="http://www.w3.org/1999/xlink" x="0px" y="0px"
	 width="102.163px" height="100px" viewBox="0 0 102.163 100" enable-background="new 0 0 102.163 100" xml:space="preserve">
<g>
	<g>
		<path fill="#FFFFFF" d="M101.682,21.607c-0.002-0.002-0.005-0.005-0.007-0.007l0,0L81.673,1.599
			c-0.318-0.323-0.756-0.5-1.209-0.489c-0.453,0.008-0.883,0.201-1.19,0.533L73.081,8.31c-0.604,0.651-0.592,1.66,0.026,2.297
			l0.47,0.483l-2.459,2.458l-3.884-0.97c-3.483-0.853-7.158,0.191-9.674,2.748l-7.085,8.257l-8.232-8.232
			c-2.347-2.36-5.83-3.183-8.985-2.123c-0.188,0.063-0.364,0.159-0.519,0.283l-0.453,0.365l-1.097-1.097l2.155-2.155
			c0.65-0.65,0.65-1.706,0-2.356c0,0,0,0,0-0.001l-6.668-6.667c-0.65-0.651-1.705-0.651-2.356-0.001c0,0,0,0,0,0.001L2.651,23.267
			C2,23.918,2,24.973,2.65,25.624c0.001,0,0.001,0,0.001,0l6.667,6.667c0.65,0.651,1.706,0.651,2.356,0l0.001,0l0.753-0.753
			l3.949,3.95l-0.97,3.884c-0.851,3.432,0.149,7.06,2.639,9.571l14.119,14.525V76.5c0.03,2.987,1.707,5.715,4.359,7.09
			c1.422,0.758,2.31,2.238,2.308,3.849v0.347h-1.666c-0.921,0-1.667,0.745-1.667,1.665c0,0.001,0,0.001,0,0.002v8.334
			c-0.001,0.92,0.744,1.667,1.665,1.667c0,0,0.001,0,0.002,0h31.669c0.921,0,1.667-0.745,1.667-1.665c0-0.001,0-0.001,0-0.002
			v-8.334c0.001-0.92-0.745-1.667-1.665-1.667c0,0-0.001,0-0.002,0h-1.667V86.11l2.643-2.437c2.528-1.913,4.018-4.896,4.025-8.067
			V56.08c1.974-0.236,3.809-1.137,5.204-2.553l8.811-9.568c2.071-2.057,2.793-5.112,1.859-7.877
			c-0.268-0.804,1.169-3.435,2.879-5.452c0.306,0.303,0.716,0.476,1.146,0.482h0.017c0.438,0,0.859-0.173,1.172-0.482l6.743-6.667
			C102.322,23.317,102.329,22.262,101.682,21.607z M10.497,28.756l-4.311-4.311L25.499,5.134l4.311,4.31L10.497,28.756z
			 M32.313,58.839L20.42,46.603c-1.673-1.684-2.348-4.119-1.779-6.423l1.2-4.798c0.143-0.568-0.023-1.169-0.438-1.583l-4.617-4.617
			l14.047-14.047l2.155,2.155c0.603,0.602,1.561,0.653,2.224,0.121l1.369-1.102c1.892-0.529,3.921,0.006,5.307,1.398l9.188,9.188
			l-0.016,0.012c-0.744,0.683-1.298,1.547-1.608,2.508c-1.033-0.56-2.211-0.796-3.38-0.679c-3.025,0.395-5.276,2.991-5.238,6.042
			v17.432C35.519,52.895,32.943,55.513,32.313,58.839z M67.169,96.119H38.833v-5h28.336V96.119z M70.503,75.606
			c-0.02,2.179-1.065,4.22-2.822,5.509l-3.306,3.037c-0.344,0.315-0.539,0.761-0.539,1.227v2.406H42.167v-0.347
			c0.004-2.843-1.563-5.455-4.074-6.789c-1.564-0.798-2.561-2.394-2.593-4.149V60.377c0.006-2.111,1.341-3.991,3.333-4.693v10.434
			h3.334V34.779c-0.051-1.343,0.909-2.513,2.236-2.725c0.707-0.073,1.412,0.157,1.94,0.633c0.527,0.472,0.827,1.146,0.823,1.854
			v24.908h3.334V31.208c-0.001-1.38,1.117-2.5,2.498-2.501c0.077,0,0.153,0.003,0.23,0.01c1.35,0.225,2.322,1.417,2.272,2.785
			v27.947h3.333V36.208c-0.001-1.38,1.117-2.5,2.498-2.501c0.077,0,0.154,0.003,0.23,0.01c1.35,0.225,2.322,1.417,2.272,2.785
			v22.947h3.333V45.683c1.993,0.702,3.328,2.581,3.334,4.693V75.606z M86.55,37.137L86.55,37.137
			c0.529,1.591,0.101,3.346-1.103,4.514l-8.811,9.567c-0.763,0.771-1.737,1.296-2.8,1.51v-2.353c-0.006-3.959-2.79-7.37-6.668-8.167
			v-5.707c0.059-3.098-2.239-5.737-5.316-6.106c-1.045-0.088-2.095,0.104-3.042,0.554c-0.196-2.884-2.421-5.219-5.292-5.554
			c-0.07-0.006-0.141,0.007-0.211,0.004l6.696-7.811c1.684-1.673,4.118-2.347,6.423-1.779l4.799,1.2
			c0.567,0.142,1.168-0.024,1.582-0.438l3.093-3.093l14.362,14.77C88.724,30.033,85.563,34.181,86.55,37.137z M93.775,27.079
			L76.603,9.418l3.936-4.24l17.595,17.594L93.775,27.079z"/>
	</g>
</g>
</svg>
