<?xml version="1.0" encoding="utf-8"?>
<!-- Generator: Adobe Illustrator 16.0.0, SVG Export Plug-In . SVG Version: 6.00 Build 0)  -->
<!DOCTYPE svg PUBLIC "-//W3C//DTD SVG 1.1//EN" "http://www.w3.org/Graphics/SVG/1.1/DTD/svg11.dtd">
<svg version="1.1" id="Capa_1" xmlns="http://www.w3.org/2000/svg" xmlns:xlink="http://www.w3.org/1999/xlink" x="0px" y="0px"
	 width="70.5px" height="100px" viewBox="0 0 70.5 100" enable-background="new 0 0 70.5 100" xml:space="preserve">
<g>
	<g>
		<g>
			<path fill="#545454" d="M51.562,14.399c-0.209,0-0.39-0.121-0.401-0.269s-0.003-0.439,0.02-0.647c0,0,0.208-1.958,1.241-3.198
				c0.931-1.095,1.447-1.902,1.447-2.833c0-1.054-0.661-1.758-1.963-1.778c-0.744,0-1.57,0.249-2.088,0.641l-0.36-0.946
				c-0.074-0.196,0.021-0.425,0.212-0.51c0,0,1.514-0.672,2.608-0.672c2.378,0,3.453,1.468,3.453,3.038
				c0,1.406-0.785,2.419-1.777,3.598c-0.91,1.075-1.241,1.984-1.179,3.039l0.006,0.158c0.008,0.209-0.156,0.38-0.366,0.38H51.562z"
				/>
		</g>
		<g>
			<path fill="#545454" d="M52.412,14.78h-0.851c-0.411,0-0.753-0.272-0.781-0.62c-0.013-0.174-0.004-0.489,0.021-0.717
				c0.01-0.084,0.234-2.087,1.328-3.4c0.861-1.014,1.358-1.762,1.358-2.589c0-1.134-0.863-1.386-1.588-1.398
				c-0.661,0-1.408,0.227-1.854,0.564l-0.405,0.307l-0.54-1.422c-0.145-0.381,0.041-0.828,0.414-0.993
				c0.064-0.03,1.599-0.706,2.763-0.706c2.647,0,3.832,1.717,3.832,3.418c0,1.506-0.809,2.587-1.866,3.843
				c-0.821,0.97-1.146,1.798-1.09,2.771l0.007,0.166c0.007,0.207-0.066,0.4-0.209,0.548C52.81,14.699,52.618,14.78,52.412,14.78z
				 M51.536,14.004l0.863,0.014l-0.006-0.143c-0.068-1.178,0.31-2.167,1.268-3.3c0.988-1.173,1.688-2.101,1.688-3.352
				c0-1.285-0.807-2.657-3.072-2.657c-1,0-2.439,0.634-2.454,0.639l0.193,0.539c0.547-0.281,1.241-0.451,1.89-0.451
				c1.447,0.022,2.344,0.85,2.344,2.159c0,1.061-0.563,1.931-1.538,3.078c-0.945,1.135-1.151,2.974-1.153,2.993
				C51.543,13.67,51.533,13.864,51.536,14.004z"/>
		</g>
	</g>
	<g>
		<g>
			<path fill="#545454" d="M50.727,17.292c0-0.765,0.517-1.302,1.24-1.302s1.22,0.537,1.22,1.302c0,0.724-0.476,1.282-1.241,1.282
				C51.222,18.574,50.727,18.017,50.727,17.292z"/>
		</g>
		<g>
			<path fill="#545454" d="M51.945,18.955c-0.911,0-1.6-0.714-1.6-1.663c0-0.974,0.683-1.682,1.621-1.682
				c0.928,0,1.601,0.708,1.601,1.682C53.568,18.256,52.886,18.955,51.945,18.955z M51.967,16.372c-0.515,0-0.859,0.37-0.859,0.921
				c0,0.531,0.344,0.902,0.838,0.902c0.523,0,0.861-0.354,0.861-0.902C52.808,16.733,52.478,16.372,51.967,16.372z"/>
		</g>
	</g>
</g>
<g>
	<path fill="#545454" d="M20.563,47.532l13.873-3.578c1.354-0.349,2.658-1.627,3.033-2.973l3.485-12.477
		c0.212-0.759,0.09-1.536-0.339-2.134c-0.427-0.599-1.124-0.967-1.913-1.011l-1.489-0.079c-1.438,0-2.836,1.026-3.252,2.387
		l-2.277,7.449c-0.209,0.68-1.027,1.452-1.721,1.62L19.66,38.734c-1.434,0.348-2.589,1.775-2.63,3.249c0,0-0.13,4.506,0.313,4.962
		C17.768,47.381,18.355,47.85,20.563,47.532z"/>
	<path fill="#545454" d="M29.796,33.081c0.421,0,0.835-0.033,1.244-0.083l1.74-5.692c0.568-1.86,2.475-3.262,4.435-3.262l1.555,0.08
		c0.423,0.024,0.818,0.132,1.195,0.278c0.086-0.533,0.142-1.075,0.142-1.631c0-5.685-4.625-10.31-10.31-10.31
		s-10.31,4.625-10.31,10.31C19.487,28.455,24.111,33.081,29.796,33.081z"/>
	<path fill="#545454" d="M52.524,0c-5.683,0-10.307,5.105-10.307,11.38c0,2.82,0.939,5.399,2.484,7.39
		c-0.08,0.064-0.158,0.133-0.216,0.225l-2.12,3.329c-0.281,0.443-0.151,1.031,0.292,1.314c0.158,0.101,0.335,0.148,0.51,0.148
		c0.315,0,0.622-0.156,0.804-0.44l2.02-3.172c1.78,1.615,4.056,2.586,6.533,2.586c5.685,0,10.309-5.105,10.309-11.38
		C62.833,5.104,58.209,0,52.524,0z M52.524,20.857c-4.634,0-8.404-4.251-8.404-9.477c0-5.227,3.771-9.478,8.404-9.478
		c4.635,0,8.405,4.251,8.405,9.478C60.93,16.606,57.159,20.857,52.524,20.857z"/>
	<path fill="#545454" d="M42.837,37.442c-0.573-0.799-1.581-1.429-2.609-1.731l-1.566,5.605c-0.493,1.765-2.139,3.379-3.915,3.838
		l-13.875,3.578c-0.659,0.102-1.135,0.143-1.59,0.143c-0.124,0-0.233-0.009-0.348-0.015v18.157v0.479v27.75
		c0,2.623,2.134,4.757,4.757,4.757h0.336c2.623,0,4.757-2.134,4.757-4.757V70.348h2.022v24.895c0,2.623,2.135,4.758,4.758,4.758
		h0.335c2.623,0,4.757-2.135,4.757-4.758V67.493v-0.479V66.9h0.299c1.379,0,2.988-0.941,3.666-2.143l6.604-11.726
		c0.692-1.227,0.59-3.083-0.23-4.226L42.837,37.442z M43.84,52.842l-3.184,5.187V46.221l3.122,4.479
		C44.16,51.25,44.191,52.271,43.84,52.842z"/>
</g>
</svg>
