<?xml version="1.0" encoding="utf-8"?>
<!-- Generator: Adobe Illustrator 16.0.0, SVG Export Plug-In . SVG Version: 6.00 Build 0)  -->
<!DOCTYPE svg PUBLIC "-//W3C//DTD SVG 1.1//EN" "http://www.w3.org/Graphics/SVG/1.1/DTD/svg11.dtd">
<svg version="1.1" id="Capa_1" xmlns="http://www.w3.org/2000/svg" xmlns:xlink="http://www.w3.org/1999/xlink" x="0px" y="0px"
	 width="96.963px" height="100px" viewBox="0 0 96.963 100" enable-background="new 0 0 96.963 100" xml:space="preserve">
<g>
	<g>
		<path fill="#FFD700" d="M99.987,64.516c-0.125-2.233-1.228-4.281-3.024-5.615c-2.908-2.157-6.944-1.933-9.596,0.537L71.243,74.454
			c0.098-3.304-2.074-6.22-5.326-7.045l-19.693-4.998c-3.453-0.877-7.068-0.759-10.459,0.342l-13.612,4.42v-3.918
			c0-1.078-0.875-1.952-1.953-1.952H1.953C0.874,61.303,0,62.177,0,63.255v34.789c0,1.078,0.875,1.953,1.953,1.953h18.246
			c1.079,0,1.953-0.875,1.953-1.953V71.279l14.819-4.813c2.688-0.872,5.555-0.965,8.291-0.271l19.693,4.998
			c1.529,0.389,2.526,1.811,2.369,3.381c-0.162,1.624-1.516,2.85-3.147,2.85H50.451c-1.079,0-1.953,0.874-1.953,1.952
			c0,1.079,0.875,1.953,1.953,1.953h4.207c0.073,0.009,0.147,0.014,0.224,0.014h9.687c3.229,0,6.312-1.213,8.676-3.413
			l16.787-15.635c1.271-1.186,3.21-1.293,4.605-0.258c0.862,0.641,1.393,1.623,1.451,2.695c0.061,1.074-0.356,2.107-1.144,2.841
			L71.819,89.102c-1.596,1.484-3.674,2.303-5.854,2.303H35.7c-1.078,0-1.952,0.873-1.952,1.951c0,1.08,0.874,1.953,1.952,1.953
			h30.266c3.17,0,6.193-1.188,8.516-3.35l23.124-21.527C99.244,68.907,100.112,66.751,99.987,64.516z M18.245,96.09H3.905V65.208
			h14.34V96.09L18.245,96.09z"/>
	</g>
</g>
<g>
	<g>
		<path fill="#FFD700" d="M29.202,91.977c-0.365-0.365-0.867-0.572-1.381-0.572c-0.517,0-1.019,0.207-1.383,0.572
			c-0.363,0.362-0.572,0.866-0.572,1.379c0,0.515,0.209,1.019,0.572,1.381c0.364,0.363,0.866,0.572,1.383,0.572
			c0.514,0,1.016-0.209,1.381-0.572c0.362-0.362,0.572-0.866,0.572-1.381C29.774,92.843,29.565,92.339,29.202,91.977z"/>
	</g>
</g>
<g>
	<g>
		<path fill="#FFD700" d="M12.455,89.958c-0.361-0.362-0.865-0.572-1.379-0.572c-0.517,0-1.021,0.207-1.383,0.572
			c-0.362,0.362-0.57,0.865-0.57,1.381c0,0.515,0.208,1.019,0.57,1.38c0.364,0.363,0.866,0.572,1.383,0.572
			c0.514,0,1.016-0.209,1.379-0.572c0.365-0.363,0.574-0.867,0.574-1.38C13.029,90.823,12.82,90.32,12.455,89.958z"/>
	</g>
</g>
<g>
	<g>
		<path fill="#FFD700" d="M49.995,0.004c-9.691,0-17.577,7.885-17.577,17.577c0,3.231,2.629,5.859,5.859,5.859
			c3.229,0,5.858-2.628,5.858-5.859c0-3.23,2.628-5.859,5.858-5.859c3.229,0,5.858,2.628,5.858,5.859s-2.629,5.859-5.858,5.859
			c-3.23,0-5.858,2.628-5.858,5.859v8.398c0,3.23,2.628,5.859,5.858,5.859c3.229,0,5.858-2.628,5.858-5.859v-3.542
			c6.972-2.46,11.719-9.071,11.719-16.574C67.572,7.889,59.687,0.004,49.995,0.004z M53.413,30.819
			c-0.862,0.223-1.465,1-1.465,1.891v4.986c0,1.077-0.876,1.953-1.953,1.953c-1.076,0-1.953-0.876-1.953-1.953v-8.398
			c0-1.077,0.877-1.953,1.953-1.953c5.385,0,9.766-4.38,9.766-9.765c0-5.385-4.381-9.765-9.766-9.765
			c-5.384,0-9.766,4.381-9.766,9.765c0,1.077-0.875,1.953-1.952,1.953s-1.952-0.876-1.952-1.953c0-7.538,6.132-13.671,13.67-13.671
			c7.539,0,13.672,6.133,13.672,13.671C63.666,23.816,59.45,29.26,53.413,30.819z"/>
	</g>
</g>
<g>
	<g>
		<path fill="#FFD700" d="M54.14,49.791c-1.089-1.092-2.6-1.719-4.145-1.719s-3.055,0.626-4.141,1.715
			c-1.093,1.088-1.719,2.6-1.719,4.145c0,1.543,0.626,3.055,1.716,4.143c1.092,1.091,2.602,1.716,4.144,1.716
			s3.052-0.625,4.143-1.716c1.092-1.092,1.717-2.602,1.717-4.143C55.854,52.389,55.228,50.879,54.14,49.791z M51.375,55.313
			c-0.358,0.357-0.874,0.571-1.38,0.571s-1.022-0.214-1.383-0.573c-0.356-0.356-0.57-0.873-0.57-1.379
			c0-0.516,0.208-1.018,0.574-1.383c0.355-0.357,0.872-0.57,1.379-0.57s1.021,0.213,1.381,0.572
			c0.358,0.357,0.572,0.875,0.572,1.381S51.734,54.953,51.375,55.313z"/>
	</g>
</g>
<g>
	<g>
		<path fill="#FFD700" d="M11.075,69.236c-1.078,0-1.953,0.875-1.953,1.953v12.401c0,1.078,0.875,1.952,1.953,1.952
			c1.079,0,1.953-0.874,1.953-1.952V71.189C13.028,70.111,12.153,69.236,11.075,69.236z"/>
	</g>
</g>
</svg>
